<?xml version='1.0' encoding='utf-8'?>
<svg xmlns="http://www.w3.org/2000/svg" viewBox="0 0 3600 2170.19"> <defs> <style> .cls-1, .cls-4, .cls-5 { fill: #7a7a7a; stroke-linecap: round; stroke-linejoin: round; } .cls-1, .cls-4, .cls-5, .cls-6 { stroke: #fff; } .cls-1 { stroke-width: 12.15px; } .cls-2 { fill: #fff; } .cls-3 { fill: #4d4d4d; } .cls-4 { stroke-width: 27.49px; } .cls-5 { stroke-width: 31.08px; } .cls-6 { stroke-linecap: square; stroke-width: 12.79px; } </style> </defs> <title>MRI Eggs</title> <g id="Layer_2" data-name="Layer 2"> <g id="MRI_Eggs" data-name="MRI Eggs"> <g id="Layer_4" data-name="Layer 4"> <g> <path d="M3599.14,1367.37c0,443.61-345.12,802.82-771.13,802.82S2056.88,1811,2056.88,1367.37,2387.62,6.25,2813.63,6.25,3599.14,923.76,3599.14,1367.37Z"/> <g> <path class="cls-1" d="M2784,1915.28a260.63,260.63,0,0,1,7.38-26.93c7.5-21.92-26.57-58.13-8.3-46.93,17.8,10.92,17.88-10.31,4.73-36.14-6.75-9.61-10-8-29.85-36.26s-57.52-87.79-55.27-84.26c4.45-14.93,17.56,4.82,32.19,33s45.86,49.83,49.7,49c7.92-1.68,18.32,18.25,24.61-30.83,1.09-8.53.32-71-7.87-93.7s40.35-21.09,24.59-55.75c8.51-772.54,4.58-1003.91-35.16-953.17s9.26-35.7,28.58-36.49,6.43-86.61-3-74c-28.69,38.32-90.06,38.13-41.47,26.28,45.53-11.09,64.94-67.14,20.58-100.75a27.16,27.16,0,0,0-15.63-1.55c-28.37,5.8-49.07,2-53.39.7-8.63-2.52-30.58-10.53,17.31-10.27,45.63.25,59.4,9.28,38.25-20.63s-34.94-36.94-46.29-33.91c-28.63,17.45-46.51,19-60.4,17.95a14.11,14.11,0,0,0-2.57-8.68,14.5,14.5,0,0,0-14-5.89c-.35.05-.48.14-.82.19-8.8,2.12-76.1,22.45-99.29,35.33a18.74,18.74,0,0,0-2.53,1.57l-1.28.89A40.71,40.71,0,0,0,2540,443c-9.71,13.29-18.75,28.67-26.66,38.08-18.91,22.52-25.55,47.3,21.16,112s22.05,42.88,10.27,33.6c-5.89-4.64-27.06-38-49.26-80.8-12.71-24.5-36.63-47.18-63.41,5.33s-1.68,59.9,41.24,94.9c45.28,36.92,18.4,27.43,8.31,23.1-5-2.16-27.51-14.62-49.71-42.09-8.66-10.71-21.85-13.15-34.18-13.29-17.52,15.4,8,43.59,29.94,61.44,26.62,21.71,10.82,16.13,4.89,13.59-3-1.27-16.18-8.6-29.23-24.75-12.45-15.41-46.41-46.31-42.23,3.55,2.09,24.93,3.67,32.61-7.18,57.87s-76.31,48.61-63.47,106.64c8.81,3.45,31.62,17.41,59,18.42,44.89,1.64,41.16,15.54,45.89,18.14,9.46,5.19,25.23,30.2-17.28,1.45s-114.21-29.64-95.15,14.86c25.53,59.63-23.95,29.94-35,72.78s-42.35,110.78,29.28,155.44c35.82,22.33,7.51,21.69-24.09-5.95s-46.16,15.85-50.42,42.22c-3.29,20.32-5.67,41.47-7.11,63.26,10.9,6.4,29.67,9.36,62.15-.84,88.84-27.91,137.3,35.18,69.61,12.39-63.44-21.36-129.66,31.5-101.76,105.93a38.77,38.77,0,0,0,17.7,13.81c38.67,14.64,60.74,35.08,65,39.9,8.49,9.63,28.88,36.06-28.74-.81-55.77-35.68-100.09-41.93-76.64,60.65,4.46,22.28-9,77.31,19.09,83.5s86.37-28.43,116.2-56.47c18.56-17.46,32.84-9.61,21.6-1.82-5.63,3.9-30.38,27-93.72,54.59-19.89,8.67-44.53,17.58-27.47,53.61,16.78,35.44,33.16,25.8,28.29,48-9.24,42.13,62.35,153.44,121.51,184.67s21.17,24.15,46.14,53.49l8,10.1c7.52,1.3,17.7,9.75,28.12,5.82,20.89-7.86,21.15-27.14,20.41-35.68-1.48-17.14,13.92-55.87,35.23-38.52-3.82,2.31-20,8.28-22.63,18.08s-3,22.84,2.16,25.74c2.6,1.45,20.48-14.39,27.29-22.86s3.09-20.73,12.49-15.78c3.92-.33,6.91,20.4-38.67,51.84,10.29,53.8,12.73,60.71,67.53,42.33,11.68-3.92-.26,32.06,15.14,50.7s60.31,12.19,86.44,18.35C2747.08,1983.92,2769.23,1944.85,2784,1915.28ZM2830.9,804.8c-7.62,123.08-14.23,467.6-6.76,737.08-8.13,34.57,29.38,76.89,20.69,99.47s-10.87,85-10,93.57c5.2,49.24,16,29.53,23.94,31.38,3.82.9,35.56-20,50.81-47.92s28.82-47.34,32.94-32.31c2.33-3.48-36.69,55.18-57.17,83.06s-23.7,26.15-30.68,35.61c-13.72,25.55-14.12,46.79,3.93,36.27,18.52-10.8-16.37,24.67-9.36,46.76a258.26,258.26,0,0,1,6.79,27.1c14.14,29.92,35.43,69.5,106.74,60.76,26.27-5.58,71.06,1.87,86.88-16.43s4.68-54.56,16.28-50.38c54.41,19.6,57,12.74,68.5-40.84-44.89-32.47-41.44-53.14-37.53-52.73,9.52-4.74,5.52,7.44,12.14,16.07s24.16,24.87,26.79,23.48c5.27-2.79,5.17-15.85,2.74-25.71s-18.46-16.2-22.23-18.59c21.71-16.88,36.25,22.21,34.38,39.32-.93,8.53-1.1,27.82,19.62,36.16,10.34,4.16,20.71-4.07,28.27-5.2l8.22-9.92c25.64-28.8-12.54-22.57,47.35-52.49s134-139.68,125.69-182c-4.38-22.33,11.79-12.32,29.37-47.4,17.87-35.67-6.58-45.13-26.28-54.25-62.75-29-87-52.68-92.54-56.7-11.08-8,3.39-15.58,21.57,2.3,29.21,28.72,86.72,64.66,115,59.09s16-60.92,21-83.11c25.75-102.11-18.72-96.84-75.31-62.38-58.47,35.59-37.49,9.6-28.77.16,4.36-4.72,26.9-24.68,65.91-38.47a38.88,38.88,0,0,0,18-13.41c29.57-73.85-35.5-128.2-99.44-108.25-68.24,21.28-18.34-40.75,69.91-10.85,32.27,10.94,51.11,8.4,62.16,2.23-1-21.83-2.86-43-5.7-63.44-3.68-26.48-17.27-70.32-49.5-43.37s-60.57,27-24.24,5.42c72.66-43.08,42.92-111.75,32.77-154.85s-60.31-14.51-33.44-73.59c20.05-44.1-51.7-44.81-94.86-17s-26.84,3.15-17.26-1.83c4.79-2.5,1.38-16.49,46.32-17.13,27.45-.39,50.59-13.85,59.48-17.1,14.14-57.77-50.83-82.58-61.12-108.1s-8.55-33.17-5.89-58.06c5.29-49.79-29.37-19.63-42.17-4.49-13.42,15.86-26.8,22.9-29.8,24.1-6,2.41-21.92,7.64,5.2-13.48,22.31-17.37,48.5-45,31.32-60.8-12.33-.14-25.59,2-34.49,12.53-22.82,27-45.58,38.95-50.67,41-10.19,4.1-37.3,13,8.83-22.93,43.72-34,69-40.88,43.38-94s-50.06-31-63.32-6.75c-23.17,42.36-45.09,75.23-51.09,79.74-12,9-37.14,30.33,11-33.39s42.08-88.66,23.67-111.62c-7.7-9.59-16.41-25.17-25.83-38.69a40.67,40.67,0,0,0-14.43-19.31l-1.27-.93a19.68,19.68,0,0,0-2.49-1.62c-22.92-13.41-89.79-35.24-98.54-37.56-.35-.06-.47-.15-.82-.21a14.52,14.52,0,0,0-14.12,5.57,14.19,14.19,0,0,0-2.77,8.63c-13.91.73-19.43-11.3-47.67-29.39-11.3-3.3-25.25,3.44-47.08,32.89S2896,426.24,2941.69,427c47.91.81,25.77,8.34,17.08,10.67-4.35,1.16-25.15,4.54-53.39-1.89A27.19,27.19,0,0,0,2889.7,437c-45.13,32.64-27,89.15,18.34,101.26,48.35,12.93-13.05,11.76-40.9-27.22-9.15-12.81-22.12,34.69,1,53.31,4,3.24,6.29,6.14,7.37,9.37,0,0-28,5.16-29.6,13.27s-4.2,48,18.38,44.76,95.63,13.89,88.64,15.71c-3.5.91-50-3.71-72.66-9.06a21.83,21.83,0,0,0-12.61.86c-36.47,25.93,59.29,120.31,31.82,93.51-10.53-10.28-50.54-68.52-49.46-44.21,3.17,78.53,42.18,97.9,37.53,108.91-4.87,11.51-47.41-73.9-59.42-61.82C2823.72,740,2842.73,773.17,2830.9,804.8Z"/> <path d="M3048.42,1583c25.23-48.38-27.79-37.21-55.42-300.14s19.91-297.79-2.87-324.5-55.77,17.3-102.14,64-30.81,84.8-22.47,109.08c-27.1,6.94-32.18,131.84-26,212.75,6.24,81.94-33.28,79.39,51,136.35,11.72,25.19-1.16-43,34.61,47.7C2943.4,1574.57,3032.42,1613.65,3048.42,1583Zm-433-4.63c15.8,30.78,105.07-7.72,123.64-53.91,36.35-90.46,23-22.36,34.92-47.48,84.65-56.42,45.12-54.12,51.88-136,6.69-80.88,2.42-205.8-24.63-212.93,8.5-24.22,24.3-62.17-21.77-109.21s-78.77-91.27-101.72-64.71,24.35,61.72-5,324.47S2590.49,1529.8,2615.41,1578.34Z"/> </g> <path class="cls-2" d="M2059.37,1316.51c0,.7-.07,1.39-.1,2.08l392.8,83.24-299.45-31.37v2.85l298.5,31.37H2078.47v1.9h372.65l-389,41.09c.09.94.19,1.89.28,2.83l389.63-41.07-293.75,62.75.95,1.9,292.8-62.75-354.59,115,.95,2.86,354.6-115-274.74,121.68.95,2.85L2454,1416.09l-353.65,204.39,1,1.9L2455.88,1418l-243.37,175.87.95,2.85,243.37-176.82-277.59,250,1.9,1.9,276.64-250L2257.19,1645.2l1.9,1,200.59-222.45-239.56,329.87,1.9,1,240.51-329.87-151.15,260.47,2.85,1,150.2-259.52-152.1,340.33,1.9,1.9,152.1-341.28-93.16,285.19,2.85,1,92.22-285.19-84.61,398.32,2.85,1,84.61-399.27L2439.72,1727h1.9l32.32-298.5v373.6h.95v-373.6l43.73,405.93h1.9l-42.78-405.93,62.75,293.75,2.85-1-62.75-292.8,115,354.59,1.9-1-3.52-11,76.19-24,18.6,32.09,2.85-1-18.6-32,439.62-138.41-367.15,158.65.42,4,367.42-159.89-433,245.24,1.93,3L3114,1613.33l-325.2,232.79,2.2,1.78L3116,1616.35l-406.54,360,2.2,1.78,407.78-359.76-271.58,295.24,3.43,2.06,270.08-294.28-295.81,398.82,1.92,3,296.08-400.06L2920.25,1967.3l3.43,2,202-344.35L2901,2118.67l3.44,2.06,225-494.91L3002.69,2005l2.47.55,128-378.91-86.49,390.69-21.08,95.2,1.24.27,21.07-95.2,86.5-390.69-55.29,498,2.74-1,56.26-496.24-3,400.1,4-.41,2.71-398.87L3185,2077.73c.93-.5,1.86-1,2.78-1.51l-42-448.08,79.42,391.11,2.75-.69-80.66-391.38,125.37,395c1.09-.79,2.17-1.59,3.25-2.39l-125.6-394.54,159.89,367.42.45-.17,3.26-2.73-159.62-364.93L3345.16,1962l2.68-2.53-190.53-336.56,219.38,307.83,2.47-2.61L3159.1,1620.71,3405.32,1899c.77-.89,1.53-1.79,2.29-2.68l-246.73-277.84,270.93,247.86c.59-.77,1.18-1.53,1.76-2.3L3163.9,1616.59,3456,1833.21l1.82-2.64-292.1-216.18,313.17,183.74,1.53-2.48L3167.74,1611l331.65,151.89,1.67-3.07-332.77-151.29,350.36,117,1.65-3.44-350-117,366,81,1-2.37-366.49-81.14,381.18,43.12c.44-1.23.88-2.46,1.31-3.7l-382.9-43.4,395.63,4.17c.4-1.32.78-2.64,1.17-4L3171,1596.12,3578.28,1557c.33-1.37.65-2.75,1-4.12l-408.63,39.27L3563,1513l-.42-4-392.62,80.39,425.64-133.61c.15-1.39.29-2.77.44-4.16l-428,134.75,367.15-158.66-.41-4-367.42,159.89L3600,1338.56c0-.15,0-.3,0-.44l-1.88-1.52-431.49,244.28,324.92-231.56-1.92-3-324.93,231.55,406.55-360L3569,1216,3161.26,1575.8l271.58-295.25-3.44-2-270.07,294.28L3455.14,1174l-2.2-1.78L3158.09,1572.5l202.32-345.59-3.43-2.06-202.32,345.6,179.27-394.32,26.79,37.5,1-1.31-27.08-37.73,16.19-35.6,32.05,29.38,1.3-.65-32.78-30,7.1-15.62,7.12,5.24.82-.81L3359,1121l6.62-14.59,60.23,35.56,1-1.3-60.61-35.56,6.5-14.3,11.94,5.42.49-1.47-11.79-5.35,6.32-13.91-1.77-1.06,13.1,4.37,37.6,12.53.33-1-37.6-12.53-153.84-51.26L3452.85,1074l.49-1.46L3237.48,1025,3399,1043.51v-1.62L3237.81,1024l201.85,1.62V1024l-201.85-1.62,162-15.47v-1.63l-162.13,16,91.52-18.59,10,7.28,1-2.85-7.18-5.2,121.2-24.61v-1.63l-122.83,25.06-10-7.23,70.79-22.22v-1.63L3320,992.46l-8.58-6.21,110.86-48.38-.82-.81L3310.35,985.5l-7.43-5.38,74.88-42.41-.65-1.3-75.53,42.77-6.79-4.91,120.73-86.38-.81-.81-121.13,86.31-6.24-4.52,60-53,4.13,1.85,1.9-1.9-4-1.77,7.49-6.61-1.3-1-7.77,6.87-15.25-6.79,37.83-41.27-.82-.81-37.94,41.67-14.3-6.38,12.53-17.06-1.31-1-12.74,17.36-13.34-6,36.52-62.25,72.36,15.54,1-2.85-71.83-15.22,3.54-6-1.3-1-3.9,6.67-66.42-14.08,4.07-18.47-1.47-.49L3271,813.59,3013.11,759l299.46,31.37v-2.85L3014.06,756.1h372.66v-1.9H3014.06l405-42.78v-2.85l-405.93,42.78,293.75-61.8-1-2.85-292.8,62.75,354.6-115-1-2.86-354.59,115L3286.9,624.91l-1-2.85L3011.21,744.69l353.64-203.44-.95-2.85L3009.31,742.79l243.37-175.87-.95-2.85L3008.36,740.89l277.59-250-1.9-.95L3007.41,739,3208,516.54l-1.91-1.9L3005.51,737.09l239.56-329.88-1.9-.95L3002.65,736.14l151.16-260.48-2.85-1L3000.75,734.23,3152.86,393.9,3151,393,2999.8,734.23,3092,448.09l-2.86-.95L2997,733.28,3081.56,334l-2.85-.95L2994.1,733.28l32.32-299.45h-2.85l-32.32,298.5V359.68h-.95V732.33l-42.78-405.92h-2.86l42.78,406.87-62.74-294.7-2.85.95,62.74,293.75-115-355.54-1.9.95,115,355.54L2860.06,459.5l-1.9.95,122.63,273.78L2776.4,381.54l-2.85,1,205.34,353.64L2802.07,492.77l-2.86,1.9L2976,737.09,2727,460.45l-1.91,1.9L2974.14,739,2751.68,538.4l-1.9,1.9,223.4,200.59L2642.36,500.38v2.85l329.87,239.56-260.47-150.2-1,1.9,259.52,150.2L2630,593.54l-1.9,1,341.28,152.1-285.19-92.21-1,1.9,285.19,93.17-398.32-84.61-1,1.9,399.27,84.61L2669,720v2.85l298.5,31.37H2594.83v1.9h372.65l-405,42.78v2.85L2968.43,759,2674.68,821.7l1,1.9,292.8-62.75-354.59,115,.95,2.85,354.59-115L2694.64,885.39l1,2.85,274.73-122.63L2616.69,970l.95,1.9,354.59-204.39L2728.87,943.38l1,2.85,243.36-176.82-277.58,250,1.9,1.9,276.64-250-200.59,223.4,1.9.95L2976,773.21l-239.57,329.88,1.9,1,240.52-329.88-151.15,260.48,2.85.95,150.2-259.53-152.1,340.34,1.9,1.9L2982.69,777l-93.16,285.2,2.85,1L2984.59,778,2901,1171.34l-18.94-33.47-3,1.93,244.27,431.49-231.55-324.92-3,1.93,232.79,325.19-315.92-357.1,42.86-24.66-.95-2.85-43.88,25.29-43.11-48.73-.82,3.71,41.24,46.57-308,177.55,243.37-175.87-1-2.85L2492,1391.37l277.59-250-1.9-.95-276.64,249.07L2691.64,1167l-1.9-1.9-200.59,222.45,239.56-329.88-1.9-1L2486.3,1386.62l151.15-260.48-2.85-1-150.2,259.53,152.1-340.33-1.9-1-151.15,341.28,92.21-286.15-2.85-1-92.22,286.15L2565.2,984.5l-2.85-1-84.61,400.23,32.32-299.46h-2.85l-32.32,298.51V1010.16h-.95v372.66l-42.78-405.93h-2.85l42.78,406.88-62.75-294.7-2.85,1,62.75,293.75-115-355.55-1.9,1,115,355.55L2343.7,1110l-1.9,1,122.63,273.79L2260,1032l-2.85,1,205.34,353.64-176.82-243.37-2.85,1.91,176.82,242.41-249.07-276.64-1.9,1.9,249.07,276.64-222.45-200.59-1.9,1.9,223.4,200.59L2126,1150.86v2.85l329.88,239.56-260.48-150.2-1,1.9L2454,1395.17,2113.64,1244l-1.9,1L2453,1397.08l-285.2-92.22-.95,1.9,285.19,93.17-392.7-83.42Zm1030.29-233.42,1.47,15.42L3072.75,1109l.82.82,17.68-10,1.64,17.22-57.74,41.31.82.81,57.06-40.66,1.85,19.32-1.12,1,1.3,1h0l2.16,22.66-17,18.53.65,1.3,16.49-18,38.45,403.39L3055.46,1175l-2.75.69L3133.37,1567l-142.12-447.77V778l21.27,197.51-14.66-3.23-.48,1.47,15.32,3.37,4.69,43.56-6.34,0v1.63l6.52,0,4.51,41.89-25.68,5.26.17,1.14,25.64-5.23L3035,1183.89h1.9l-7.85-74.45.1.19Zm2.7-1.19,2.79-1.22,4.26,13.12-5.61,3.19Zm1.56,16.36,5.86-3.32,4.51,13.9-8.76,6.27Zm1.75,18.32,9-6.44,4.78,14.73-12,10.61Zm2,20.86L3110,1126.5l2,6.06,1.9-1-2.14-6.64,60.29-53.35,3.26,5.63-75.52,82.38Zm2.28,24,76-83.07,3.47,6-58.62,79.16,1.3,1,58.05-78.88,3.83,6.6-77.34,131.7,1.3,1,33.64-57.34-3,399.36Zm42.08,5.33,42.83-73,4.41,7.62-36.74,80.87,1,.33,36.56-79.82,4.23,7.3-.94,8.3-23.57,70.73-12.54,37.6.49.16,12.54-37.6,22.8-68.42-10.83,95.33-7.58,34.79,1,.32,5.39-24.48-38.73,341,3.25-401.34Zm55.47-51.19,4.83,8.34-12.05,55.36Zm-8.52,75.14,14.33-65.11,1.84,3.17,2.86-1-3.76-6.46,18.92-85.95L3205.1,1197h1.63l17.9-161.15-1.48,184.19-76.87,347.22Zm34.13,35.46-.09,11.58,1.14-.17.17-16.94,9.69-43.74,4.1-18.53,3.78,39,1.14-.16-4.2-42.09,6.6-29.8,19.52,94.59-117.43,347.68Zm1.29-11.68,1.86-178.59,11.47,118.39-4.95,22.33Zm14-63.4-11.53-115.52,17.9,86.72Zm28,76.17,5.05,24.48h1.63l-5.69-27.43,11.67-34.58h0l0,0,.06-.17-.12,0-28.25-88.62,2.61-11.78,56.69,130L3151,1569.62Zm-.53-10.29-19.73-95.18,3.91-17.66L3277,1189l-1.49-.34Zm-20.36-98.21-17.37-83.84,21.15,66.8Zm4.5-20.31-20.25-63.53,22.76,52.18Zm60.87,118.8-57-130.59.82-3.73-1.23-.27-.45,2-22-50.42,79.93,141.13,1.3-.66L3232,1033.44l99.34,139Zm21-46.32-99.22-138.29L3340,1153.35Zm8.5-18.7L3234.07,1032l113.68,104.22Zm7.84-17.28-93.39-85.43,1.55-1.55-2.41-2.67,101.16,74.44Zm7.4-16.31-106.88-79.15-3.75-4.16,117.08,69.11Zm7-15.49-120-70.37-1.34-1.49,127.62,57.93Zm7-15.34-130.91-59.47-.26-.28,137.5,45.82Zm-466.46,87.47L2987.44,778l-31.37,298.51h1.9L2990.3,778v338.31l-21.2-66.78-4,.41,25.18,79.1v22.57h.95V1132l139.1,437-159.89-367.42-4.26,1.65,160.17,366.19Zm189-94.75-.87-9.14-2.75.69.92,9.62-60.64,26.46-4.55-43.24,29.75-6.07,2.75,12.88,2.85-1-2.68-12.52,28.94-5.91,4.14,12.74-31.5,9.88v1.63l31.95-10.11,4.2,12.94ZM3198,1110.66l.83-7.26,22.82-68.5-18.44,84.73Zm-3.19-5.5-3.3-5.68,5.24-11.44Zm7-28.19,19.35-42.23-22.06,66.19Zm-3-7.12-1.58,13.84-6.54,14.4-4.2-7.24Zm4.72-8,16.16-27.55-17.37,38.24Zm-3.42-3.42-.88,7.73-13.63,23.21-3.64-6.27Zm4.5-6.12,13.62-18.5-14.27,24.3Zm-3.65-1.32-.57,5-19.16,25.86-3.3-5.69Zm4.34-4.76,12.11-13.23-12.53,16.91Zm-3.72-.76-.4,3.53L3177.34,1075l-3.1-5.34Zm4.23-3.74,10.79-9.55-11.07,12.08Zm-3.69-1-.3,2.62-28.39,25.07-3-5.12Zm4.14-3,9.69-6.9-9.9,8.74Zm-3.69-1-.22,2L3169.78,1062l-2.93-5Zm4.07-2.3,8-4.54-8.15,5.84Zm-3.69-1-.18,1.55-36.64,20.85-2.89-5Zm4-1.75,7-3.09-7.15,4.07Zm-3.7-.88-.15,1.34-40.47,17.66-3-5.18Zm3.94-1.24,6.64-2.11-6.73,2.94Zm-3.67-1.18-.13,1.16L3159,1043.44l-3.12-5.37Zm3.89-.79,6.26-1.28-6.34,2Zm-2.14-1-1.51-.33-.07.65-48.56,10-3.39-5.84,61.28-6Zm-409.11,412.52V1438l-3.23-.33-68.17-31h89.06l299.05,176.67Zm-11.55-2.34-286.95-30.16h220.61Zm35.06-30.16h50.64v-1.9h-53.88l-45.86-26.91-1.79,2.2,41.83,24.71h-90l-42-19.11,152.15-16.08L3115,1579.82Zm-105.58-1.9H2497.71l175.62-18.55Zm120.15-35.55,49.58-5.24,232.89,213.73Zm53.51-5.66,14.88-1.57v-2.85l-17.68,1.86-60.74-55.56-1.78,2.2,58.6,53.78-50.19,5.29-70.67-52.16,91.13-29.56-.95-2.85-93.15,30.22L2731,1292.9l39.53-17.51-.95-2.85L2728.36,1291l-10.7-7.91-2.74.69,11.13,8.25-231.2,103.19L2803,1217.94l316.83,357.75Zm-60.4,3.51-153.94,16.23-27.87-12.69L2790.51,1340l-.16-.48Zm-159.26,16.79-171.38,18.06,144.33-30.36Zm119.54-46.18-145.8,31.24-20.5-9.33,136.21-44.19Zm-150.28,32.2-140.64,30.14,120.76-39.18Zm117.22-56.67-258.82,84,232.89-103.15Zm-161.49,455.32L2483.45,1427.5l121.68,273.79,1.9-1L2484.4,1426.55l184.29,318Zm78.4-24.78-54.69-94.19,30.67-3,15.61,21.49,2.85-1.9-14.56-20,35-3.37,34.09,37.88-2.8.56.42,4,5.47-1.12,14.63,16.25,1.9-1.9-13.48-15,384.09-78.64Zm-56-96.48L2486.3,1424.65l158.47,218.11-29.42,2.83Zm33.16-4.79L2489.15,1423.7l98,108.82-16.37-1.86-.82,3.71,21,2.38,92.13,102.33Zm74.89,37.65-33.83-37.57,95.76-9.21,36.91,26.84Zm-37.16-41.28L2595,1537.21l27.54,3.12,91,82.05,1.9-1.9-88.73-79.67,37.49,4.25,65.65,47.72-19.73-.14.69,2.74,22.83.16,47,34.17ZM2591.15,1533l-100.1-111.18L2617.68,1536Zm30.66,3.47L2492,1419.89l165.93,120.64ZM2823,1660l.81-2.43-34.1-24.69,320.37-30.79Zm-38.2-30.67-46.59-33.74,371.45,2.52Zm-50.39-36.49-65.17-47.19,56.12,6.36,28.1,16.2,1-1.9-23.65-13.69,93.21,10.57,11.25,5,1.9-1.9-4.92-2.19,278,31.51ZM2663,1541.09,2493,1418,2717,1547.21Zm59.53,6.74-227.63-131.74,163.23,73-32.42-7.18-.55,2.48,44.47,9.84L2812.36,1558Zm98.06,11.09-139.62-62.23,39.39,8.72,389.45,86.22Zm-151.18-67.38-173.56-77.35L2781,1506.4l.95-1.9-285.19-93.17,234.52,50.38-.15.7,379.18,126.75-389.45-86.22Zm89-24,136.67,29.35,1-2.85-159.41-33.78-4.67-1.56-.12.55-235.07-49.82,296.06,31,319.55,145.27Zm265.8-403.82-4.36-41.43,26.48.21,7.5,35.14Zm-4.54-43.06-4.53-43,22.67,5,8.17,38.26ZM3015,976,2994.1,778l38.52,180.36-10.5-3.5-.33,1,11.08,3.69,4.58,21.46Zm41.78,81-3.5-16.34,28-2.75,4.27,13.18Zm-3.84-17.92-3.55-16.6,27,.22,4.45,13.71Zm-3.9-18.23L3041,983.3l24.35,5.36,5.4,16.64-19.12-2.13.17,1.14,19.32,2.14,4.76,14.66Zm-8.42-39.25-4.51-21.08,22.54,7.51,6.12,18.88Zm-4.76-22.25-11.5-53.64,17.38,10.2,16.52,50.91Zm-11.62-54.2L2997,778l44.25,136.4-16.48-9.67Zm87,218.15-4.67-14.52,61.6-43.9,3.13,5.39Zm-5.09-15.82-4.4-13.68,62.62-35.47,3.07,5.3Zm-4.77-14.83-4.15-12.91,63.43-27.81,3,5.25Zm-4.56-14.18-4.1-12.73,64.17-20.32,3.16,5.45Zm-4.54-14.12-4-12.52,30.93-6.31,2.32,5.24,1.91-1-2.12-4.72,31.67-6.46,3.27,5.65Zm-4.42-13.73-4.17-13,30.66-3,4.29,9.66Zm-4.64-14.44-4.34-13.46,30.27.24,4.58,10.31Zm-4.86-15.09-4.63-14.38,29.66,3.29,5,11.33Zm-5-15.53-5.25-16.32,28.88,6.35,5.89,13.27Zm-5.8-18-5.95-18.5,27.66,9.22,6.93,15.58Zm-6.34-19.71-16-49.89,23.4,13.72L3079.33,956l-13.26-6-.49,1.46,14.69,6.68,8.42,18.93Zm-16.56-51.47L2999.8,777l68,153Zm76.09,127.54-4.23-9.44,32.17-3.17,3.56,6.14Zm-4.85-10.82-4.51-10.08,32.65.26,3.92,6.76Zm-5.24-11.71-5-11.09,32.94,3.65,4.46,7.69Zm-5.48-12.24-5.83-13,33.2,7.31,5.43,9.36Zm-6.62-14.77-6.84-15.28,33.11,11,6.66,11.49Zm-7.42-16.56-8.33-18.6,32.72,14.86,8.52,14.71Zm-9.28-20.73-10.7-23.88,31.33,18.38,11.7,20.18Zm-11.47-25.59-69.62-155.44L3101.38,949.7Zm80.68,98.24-3.73-6.43,65.58.52Zm-4.68-8.07-4.26-7.33,70.79,7.86Zm-4.92-8.46-5.18-8.93,40,8.81,3.17,4.36Zm-6.25-10.77-6.37-11,41.85,13.95,4.17,5.74Zm-7.15-12.31-8.16-14.06,44,20,5.77,7.93Zm-9.5-16.37-11.22-19.32,45.84,26.89,8.83,12.15Zm-12.31-21.2-17-29.22,47.12,34.9,15.24,21Zm-18.42-31.72-85.17-146.68,96.59,132.94-31.55-28.79-1.14.17L3102,910.92l31.79,43.76Zm91.75,96.63,2.76-1.84-1-1.44,31.95,7Zm.31-5.21-3.65-5,37,12.33Zm-4.7-6.43-5.06-6.94,43.43,19.73Zm-6.95-9.52-7.83-10.74,54.13,31.75Zm-9.36-12.85-13.62-18.66,69.61,51.54Zm-16.29-22.33-28.74-39.39,102,93.3ZM3111,917.81l-105.47-144.6L3202.6,992.12l15.35,21.46-108.1-121.76-.81.81,107.61,121.6Zm98.47,81.92,5.15,5.72,4.16,7.31Zm8.65,9.6.66.73.82,1.89Zm19.28,21.42.62.69-2.14-1.59Zm6,6.65,7.75,8.61-16.24-14.86Zm-21.15-27.5-.24-.26-19.87-62.76,8.66,7.81Zm-2.76-3.07-1-1.13L3186.73,933l12.91,11.64Zm-4.1-4.55-3.39-3.77-49.49-87.37,21.63,19.51Zm-7-7.74-12.85-14.27-79-110.56,42.74,38.54Zm-19.77-21.95L3007.41,771.31l104.87,94.57Zm24-16.26,6.36,5.74,4.85,48.58Zm7.47,6.74,5.1,4.59-.38,43.31Zm6.23,5.61,3.56,3.22.47-.47-4.4,39.38Zm4.3.27-4.27-3.83.32-37,7.88,5.72Zm-5.4-4.85-5.52-5-3.82-38.89,9.66,7Zm-6.63-5.94L3211.7,952l-8.43-40.88,11.44,8.32Zm-8.7-7.82-9.31-8.36-13.51-42.66,14.42,10.48Zm-11.79-10.58-13.82-12.41-19.2-44,19.58,14.22ZM3181.65,925l-23-20.69-19-33.5-1.3.65,17,29.95-45.19-40.57L3090,832.57l-.49,1.46,16.47,23-97.61-87.64,154.38,112.24Zm54.33,9.88,7.11,5.17-15.7,71.24Zm8.5,6.18,6.39,4.65L3229,1011.3Zm6.83,5,6.12,4.45-27.92,61Zm7.42,5.39,5.49,4-33.41,57Zm6.74,4.9,5.45,4-38.64,52.62Zm6.77,4.92,5.58,4.06-44.24,48.59Zm6.14,4.47,5.66,4.12-50,44.22Zm6.89,5,6,4.35-56.53,40.28Zm7.2,5.23,6.5,4.73L3236,1016.34Zm7.79,5.67,7.12,5.17-70.71,30.85Zm8.15,5.92,8.21,6-79.79,25.26Zm9.57,7,9.56,7L3237,1019.92ZM3286.14,968l-5.9-4.27,50.63-55.23,15,6.69Zm-6.47-4.69-5.82-4.21,42.06-57.28,14,6.27Zm-7.14-5.17-5.69-4.11,34.46-58.75,13.09,5.86Zm-7-5-5.71-4.14,27.43-60,12.55,5.61Zm-7-5.08-6.38-4.62,10-30,7.58,4.37.95-1.9-7.85-4.54,9.63-28.88,13.37,6Zm-6.82-4.94-6.65-4.82,6.79-30.86,9.86,5.69Zm-8-5.82-7.4-5.36,3.54-31.44,10.62,6.12Zm-8.85-6.41-8.18-5.92L3227,893l11.39,6.57Zm-9.31-6.74-10-7.27-3.18-32.24,13.49,7.77Zm-11.18-8.1-11.87-8.59-6.67-32.35,15.34,8.85Zm-13.67-9.9-14.92-10.8-10.08-31.85L3194.06,874Zm-17.35-12.56-20.23-14.65-13.22-30.31,23.43,13.51Zm-22.55-16.33-151.49-109.7,138.47,79.85ZM3262.44,911l-10.06-5.82,6.37-29,13.3,5.94ZM3251,904.36l-10.84-6.28,3.22-28.73,14,6.24Zm-12.35-7.14L3227,890.49l.25-28.34,14.58,6.52Zm-12.76-7.39-13.78-8-2.72-27.7,16.75,7.49Zm-15-8.66-15.67-9.07-5.52-26.72,18.44,8.24Zm-17.45-10.1-18.77-10.86-1.33-4.21-1.79.49.74,2.34-24-13.87-8-18.42-1.3.66,7.21,16.54-135-78.13,176.74,79Zm107.66,21.41-12.78-5.7,10.36-22.64-1.46-.49-10.32,22.5-13.61-6.06,7.65-23,2-5.9,14.45,4.68,1-1.9-14.73-4.81L3293,821l44.42,9.54Zm-28.28-12.6-13.54-6,6.21-28.22,16.92,5.47-2,5.88Zm-15-6.69-14.21-6.33,2-17.7H3244l-1.9,17-14.83-6.61.23-26.24L3264,845.14Zm-31.71-14.13-17-7.59-.26-2.63-1.14.16.2,1.93-18.76-8.36-4.79-23.2,42,13.59Zm-38.75-17.26-175.21-78.09,170.45,55.11Zm95.72,7.25-17.12-5.6,5.94-27,20.57,4.42Zm-18.6-6.08-37-12.08.19-22.42-1.14.16-.19,21.89-42.61-13.92-4.12-20,90.77,19.5ZM3182,816l-168.93-55.18,164.83,35.41Z"/> </g> </g> <g id="Layer_2-2" data-name="Layer 2"> <g> <g> <path class="cls-3" d="M1543.12,1361.88c0,443.85-345.31,803.26-771.56,803.26S0,1805.73,0,1361.88,330.93,0,757.17,0,1543.12,918,1543.12,1361.88Z"/> <g> <path class="cls-4" d="M718.78,1913.28a260.28,260.28,0,0,1,7.75-26.84c7.81-21.83-25.77-58.53-7.65-47.07,17.65,11.17,18-10.07,5.23-36.09-6.63-9.71-9.91-8.09-29.37-36.69s-56.33-88.62-54.13-85.07c4.66-14.87,17.51,5.07,31.74,33.48s45.2,50.48,49,49.72c8-1.56,18.09,18.52,25.05-30.5,1.21-8.52,1.3-71-6.57-93.85s40.65-20.54,25.36-55.43c19.18-772.79,18.45-1004.32-22-954.1s9.75-35.59,29.09-36.11,7.63-86.57-2-74.1c-29.23,38-90.62,36.9-41.85,25.73,45.7-10.47,65.9-66.29,22-100.52a27.2,27.2,0,0,0-15.62-1.77c-28.46,5.42-49.12,1.29-53.42,0-8.6-2.64-30.46-11,17.46-10,45.64.88,59.3,10.1,38.55-20.11S703,376.45,691.6,379.33c-28.88,17.06-46.8,18.35-60.67,17.11a14.2,14.2,0,0,0-2.46-8.72,14.51,14.51,0,0,0-13.91-6.07c-.34,0-.47.13-.82.17-8.83,2-76.44,21.41-99.82,34a19.78,19.78,0,0,0-2.55,1.53l-1.3.88A40.68,40.68,0,0,0,495,437c-9.9,13.16-19.16,28.42-27.2,37.73-19.23,22.27-26.21,47,19.62,112.38s21.46,43.2,9.81,33.76c-5.82-4.72-26.54-38.35-48.17-81.51-12.37-24.69-36-47.72-63.51,4.45s-2.51,59.91,39.95,95.51c44.8,37.57,18,27.7,8,23.23-5-2.23-27.32-15-49.15-42.79-8.52-10.84-21.69-13.47-34-13.77-17.74,15.17,7.44,43.72,29.11,61.88,26.33,22.09,10.59,16.28,4.7,13.66-2.95-1.32-16.06-8.83-28.9-25.16-12.24-15.59-45.8-47-42.3,3,1.75,25,3.22,32.68-8,57.81s-77,47.57-65,105.81c8.76,3.56,31.4,17.85,58.81,19.23,44.89,2.27,41,16.12,45.66,18.79,9.39,5.32,24.82,30.56-17.3,1.21s-113.86-31.23-95.41,13.56c24.72,60-24.37,29.62-36.07,72.32S151.73,1058.3,222.78,1104c35.53,22.84,7.22,21.81-24-6.29s-46.39,15.22-51,41.55c-3.57,20.28-6.24,41.41-8,63.19,10.81,6.56,29.55,9.77,62.19,0,89.26-26.7,136.88,37.09,69.47,13.35-63.17-22.24-130.15,29.73-103.27,104.58a38.81,38.81,0,0,0,17.52,14.06c38.48,15.18,60.28,35.94,64.46,40.81,8.37,9.75,28.41,36.48-28.73-1.2-55.3-36.47-99.56-43.34-77.51,59.62,4.15,22.35-10.1,77.22,17.94,83.8s86.81-27.25,117-54.89c18.81-17.21,33-9.16,21.64-1.52-5.68,3.82-30.77,26.56-94.52,53.32-20,8.4-44.79,17-28.22,53.25,16.3,35.69,32.82,26.27,27.64,48.42-9.82,42,60.26,154.38,119,186.44s20.84,24.45,45.42,54.15l7.86,10.21c7.51,1.41,17.57,10,28.06,6.22,21-7.59,21.53-26.86,20.91-35.43-1.25-17.15,14.69-55.69,35.77-38-3.85,2.25-20.1,8-22.88,17.77s-3.35,22.81,1.81,25.78c2.58,1.49,20.68-14.11,27.61-22.49s3.38-20.7,12.72-15.61c3.92-.28,6.62,20.5-39.41,51.33,9.56,54,11.9,60.91,67,43.28,11.74-3.76-.71,32.07,14.44,50.93s60.17,13,86.23,19.55C680.86,1981.44,703.56,1942.66,718.78,1913.28ZM781,802.93c-9.32,123-20.69,467.62-16.93,737.33-8.61,34.48,28.33,77.33,19.32,99.8s-12,84.89-11.26,93.47c4.52,49.34,15.65,29.77,23.51,31.74,3.82,1,35.86-19.58,51.51-47.25s29.48-47,33.39-31.87c2.38-3.45-37.47,54.7-58.34,82.31s-24.08,25.83-31.18,35.2c-14.09,25.37-14.78,46.62,3.42,36.34,18.69-10.55-16.71,24.45-10,46.65a258.68,258.68,0,0,1,6.41,27.22c13.74,30.12,34.5,70,105.95,62.25,26.37-5.22,71.08,2.85,87.16-15.24s5.43-54.52,17-50.18c54.17,20.37,56.86,13.54,69.1-39.91-44.47-33.11-40.72-53.74-36.82-53.27,9.59-4.61,5.42,7.52,11.93,16.24s23.82,25.22,26.47,23.86c5.31-2.71,5.39-15.78,3.1-25.68s-18.25-16.46-22-18.91c21.94-16.58,36,22.73,33.85,39.82-1,8.52-1.48,27.82,19.13,36.44,10.29,4.31,20.78-3.78,28.35-4.81l8.36-9.81c26-28.46-12.23-22.75,48.1-51.86s136-137.89,128.26-180.38c-4.07-22.4,12-12.16,30-47,18.37-35.43-6-45.23-25.54-54.63-62.38-29.93-86.32-53.9-91.8-58-11-8.21,3.6-15.54,21.54,2.59,28.83,29.14,85.87,65.89,114.22,60.71s16.85-60.73,22.12-82.86c27.17-101.8-17.4-97.14-74.49-63.45-59,34.8-37.63,9.09-28.78-.24,4.43-4.66,27.25-24.31,66.47-37.57a38.88,38.88,0,0,0,18.21-13.17c30.6-73.47-33.75-128.75-98-109.68-68.56,20.36-17.79-41,70.1-9.88,32.13,11.39,51,9.11,62.15,3.09-.66-21.85-2.27-43.1-4.83-63.56-3.31-26.54-16.3-70.58-48.92-44.06s-61,26.13-24.32,5.08c73.29-42.09,44.48-111.21,34.92-154.47s-60.14-15.35-32.44-74.08c20.67-43.84-51.11-45.55-94.68-18.32s-26.88,2.78-17.23-2.07c4.82-2.43,1.6-16.47,46.57-16.5,27.47,0,50.81-13.16,59.74-16.29,15-57.6-49.71-83.31-59.65-109s-8.09-33.3-5.1-58.17c6-49.73-29.11-20-42.12-5.07-13.65,15.69-27.13,22.54-30.14,23.7-6,2.33-22,7.34,5.38-13.41,22.56-17.07,49.15-44.35,32.18-60.4-12.34-.31-25.63,1.65-34.68,12.07-23.21,26.68-46.14,38.33-51.26,40.31-10.25,4-37.5,12.49,9.15-22.81,44.21-33.47,69.6-40,44.7-93.47s-49.66-31.68-63.26-7.62c-23.76,42.06-46.15,74.64-52.21,79.07-12.12,8.85-37.58,29.83,11.49-33.26s43.33-88.12,25.22-111.33c-7.57-9.71-16.06-25.42-25.3-39.07a40.7,40.7,0,0,0-14.18-19.52c-.37-.29-.87-.66-1.25-.94a18.07,18.07,0,0,0-2.47-1.66c-22.74-13.73-89.34-36.5-98.07-38.94-.34-.06-.47-.16-.81-.22a14.51,14.51,0,0,0-14.2,5.38,14.17,14.17,0,0,0-2.9,8.59c-13.92.54-19.28-11.57-47.29-30.06-11.25-3.45-25.3,3.09-47.54,32.25s-8.14,20.62,37.53,22C945,428,922.72,435.2,914,437.41c-4.36,1.1-25.22,4.19-53.39-2.63a27.12,27.12,0,0,0-15.7,1c-45.6,32-28.2,88.81,17,101.56,48.19,13.6-13.22,11.58-40.55-27.8-9-12.94-22.6,34.4.24,53.35,4,3.29,6.21,6.22,7.24,9.47,0,0-28.11,4.77-29.79,12.87s-4.87,47.94,17.77,45,95.48,15.22,88.46,16.94c-3.52.86-50-4.4-72.57-10.06a21.8,21.8,0,0,0-12.62.68c-36.84,25.44,57.66,121.19,30.54,94-10.39-10.42-49.61-69.24-48.88-44.91,2.1,78.61,40.86,98.53,36,109.48-5,11.45-46.41-74.59-58.59-62.66C774.71,738,793.27,771.45,781,802.93Z"/> <path d="M987.88,1584.46c25.91-48-27.3-37.61-51.31-301s24-297.66,1.61-324.69-56,16.54-103.07,62.67-32,84.41-24,108.82c-27.21,6.57-34,131.46-29,212.49,5.12,82.06-34.39,79,49.16,137.12,11.37,25.36-.57-43,34,48.2C882.92,1574.61,971.45,1614.94,987.88,1584.46Zm-433.15-10.61c15.38,31,105.23-6.27,124.44-52.23,37.61-90,23.35-22,35.59-47,85.47-55.28,45.89-53.53,53.79-135.36,7.8-80.83,5.25-205.86-21.71-213.37,8.84-24.11,25.17-61.86-20.27-109.56S649,923.92,625.69,950.17s23.52,62.09-9.44,324.56S530.47,1525,554.73,1573.85Z"/> </g> </g> <g> <path class="cls-5" d="M717.64,1919.33a263.94,263.94,0,0,1,7.92-27.4c8-22.27-26.31-59.73-7.81-48,18,11.39,18.4-10.28,5.34-36.84-6.76-9.91-10.11-8.26-30-37.45s-57.49-90.46-55.24-86.82c4.76-15.18,17.87,5.17,32.4,34.16s46.12,51.53,50.05,50.76c8.11-1.6,18.46,18.9,25.57-31.13,1.24-8.7,1.33-72.44-6.71-95.79s41.5-21,25.91-56.58c19.63-788.73,18.9-1025-22.4-973.78s10-36.33,29.69-36.86,7.8-88.35-2-75.63c-29.83,38.73-92.5,37.66-42.72,26.25,46.65-10.68,67.27-67.64,22.45-102.59a27.72,27.72,0,0,0-16-1.8c-29,5.52-50.13,1.31-54.52,0-8.78-2.69-31.08-11.19,17.82-10.25,46.59.9,60.53,10.32,39.35-20.51S701.66,350.77,690,353.72c-29.48,17.41-47.76,18.72-61.92,17.46a14.4,14.4,0,0,0-2.51-8.9,14.8,14.8,0,0,0-14.19-6.21c-.35.05-.49.14-.84.19-9,2-78,21.84-101.89,34.67a19.45,19.45,0,0,0-2.6,1.56l-1.32.89a41.59,41.59,0,0,0-15.44,19.17c-10.1,13.44-19.56,29-27.76,38.51-19.63,22.72-26.76,47.94,20,114.7s21.91,44.1,10,34.46c-5.95-4.82-27.09-39.15-49.16-83.2-12.63-25.2-36.74-48.7-64.83,4.54S375,582.7,418.36,619c45.72,38.35,18.4,28.27,8.16,23.71-5.11-2.28-27.88-15.32-50.16-43.68C367.67,588,354.23,585.33,341.64,585c-18.1,15.47,7.6,44.62,29.7,63.16,26.88,22.54,10.82,16.62,4.8,13.94-3-1.34-16.39-9-29.49-25.68-12.49-15.91-46.74-48-43.17,3,1.78,25.48,3.28,33.35-8.16,59S216.71,747,229,806.44c8.95,3.64,32.05,18.23,60,19.64,45.81,2.32,41.81,16.46,46.61,19.18,9.58,5.43,25.32,31.2-17.67,1.23s-116.2-31.88-97.37,13.83c25.22,61.25-24.88,30.24-36.83,73.82S139,1046.66,211.48,1093.28c36.25,23.31,7.36,22.26-24.52-6.42s-47.36,15.53-52.09,42.39c-3.64,20.71-6.37,42.27-8.15,64.5,11,6.7,30.16,10,63.47,0,91.11-27.24,139.71,37.87,70.91,13.64-64.48-22.71-132.85,30.33-105.42,106.73a39.57,39.57,0,0,0,17.88,14.34c39.28,15.51,61.53,36.69,65.8,41.67,8.54,9.95,29,37.24-29.33-1.23-56.44-37.22-101.61-44.24-79.12,60.84,4.24,22.82-10.31,78.82,18.31,85.54s88.6-27.81,119.45-56c19.2-17.56,33.68-9.34,22.08-1.55-5.79,3.9-31.4,27.1-96.47,54.42-20.42,8.57-45.71,17.31-28.81,54.34,16.64,36.43,33.5,26.82,28.21,49.43-10,42.89,61.49,157.57,121.46,190.29s21.27,25,46.36,55.27l8,10.43c7.66,1.43,17.93,10.2,28.63,6.34,21.44-7.74,22-27.41,21.35-36.15-1.27-17.51,15-56.84,36.51-38.83-3.93,2.3-20.51,8.18-23.35,18.14s-3.43,23.28,1.84,26.31c2.63,1.52,21.11-14.4,28.19-23s3.44-21.12,13-15.93c4-.28,6.76,20.92-40.23,52.38,9.75,55.08,12.14,62.17,68.36,44.18,12-3.83-.72,32.74,14.74,52s61.41,13.31,88,20C678.94,1988.89,702.11,1949.32,717.64,1919.33ZM781.23,786.07c-9.52,125.57-21.15,477.27-17.35,752.54-8.78,35.19,28.92,78.93,19.72,101.87s-12.3,86.64-11.5,95.4c4.61,50.35,16,30.38,24,32.39,3.89,1,36.59-20,52.56-48.22s30.1-47.94,34.09-32.53c2.43-3.51-38.25,55.83-59.55,84s-24.58,26.36-31.83,35.93c-14.38,25.89-15.09,47.57,3.49,37.08,19.07-10.76-17.06,25-10.21,47.62a262.38,262.38,0,0,1,6.54,27.77c14,30.75,35.2,71.47,108.14,63.55,26.9-5.32,72.53,2.92,88.95-15.55s5.55-55.64,17.33-51.21c55.28,20.8,58,13.83,70.53-40.73-45.39-33.79-41.56-54.85-37.58-54.37,9.79-4.71,5.53,7.68,12.17,16.58s24.32,25.74,27,24.35c5.42-2.77,5.5-16.1,3.16-26.2s-18.61-16.81-22.43-19.31c22.4-16.92,36.7,23.2,34.55,40.64-1.08,8.7-1.52,28.39,19.52,37.2,10.5,4.39,21.21-3.86,28.94-4.91l8.53-10c26.59-29-12.48-23.22,49.1-52.92s138.8-140.72,130.92-184.09c-4.15-22.87,12.22-12.41,30.66-48,18.75-36.16-6.08-46.16-26.06-55.76-63.67-30.55-88.1-55-93.7-59.21-11.19-8.37,3.69-15.86,22,2.65,29.42,29.75,87.63,67.26,116.57,62s17.2-62,22.58-84.56c27.74-103.9-17.75-99.15-76-64.77-60.21,35.52-38.41,9.28-29.38-.24,4.52-4.77,27.82-24.82,67.85-38.35a39.6,39.6,0,0,0,18.58-13.44c31.25-75-34.43-131.41-100-112-70,20.77-18.15-41.86,71.55-10.08,32.79,11.62,52.06,9.3,63.43,3.16-.67-22.3-2.31-44-4.92-64.87-3.38-27.09-16.64-72-49.93-45s-62.23,26.67-24.82,5.19c74.8-43,45.4-113.5,35.65-157.66s-61.38-15.67-33.1-75.61c21.1-44.74-52.16-46.49-96.63-18.7s-27.44,2.83-17.59-2.12c4.92-2.48,1.63-16.81,47.53-16.83,28,0,51.86-13.43,61-16.62,15.26-58.79-50.73-85-60.87-111.25s-8.26-34-5.2-59.37c6.12-50.76-29.71-20.46-43-5.18-13.92,16-27.68,23-30.76,24.19-6.15,2.38-22.5,7.49,5.5-13.69,23-17.42,50.16-45.27,32.85-61.64-12.6-.32-26.17,1.68-35.41,12.31-23.68,27.23-47.09,39.12-52.32,41.14-10.46,4.05-38.26,12.75,9.35-23.29,45.13-34.15,71-40.77,45.62-95.38s-50.68-32.34-64.56-7.78c-24.26,42.92-47.11,76.17-53.29,80.68-12.37,9-38.36,30.45,11.73-33.93s44.23-89.94,25.75-113.64c-7.72-9.9-16.4-25.93-25.82-39.87a41.54,41.54,0,0,0-14.47-19.93l-1.28-1a19.78,19.78,0,0,0-2.52-1.69c-23.21-14-91.18-37.26-100.09-39.75-.35-.07-.48-.16-.83-.23a14.83,14.83,0,0,0-14.5,5.5,14.5,14.5,0,0,0-2.95,8.77c-14.21.55-19.68-11.82-48.27-30.69-11.48-3.53-25.82,3.15-48.53,32.91s-8.3,21.05,38.31,22.48c48.92,1.5,26.2,8.88,17.29,11.13-4.45,1.13-25.74,4.28-54.49-2.69a27.82,27.82,0,0,0-16,1C799.94,444,817.7,502,863.78,515c49.18,13.89-13.5,11.82-41.38-28.38-9.16-13.2-23.08,35.12.23,54.46,4,3.36,6.34,6.35,7.4,9.66,0,0-28.7,4.87-30.42,13.14s-5,48.93,18.14,46S915.2,625.36,908,627.11c-3.58.88-51-4.49-74.06-10.27a22.21,22.21,0,0,0-12.89.7c-37.6,26,58.85,123.69,31.17,95.93-10.61-10.65-50.63-70.68-49.88-45.84,2.13,80.23,41.69,100.56,36.78,111.73-5.14,11.69-47.36-76.13-59.8-64C774.82,719.84,793.77,753.94,781.23,786.07Zm193.7,751.17c-13.45,25.88-88.52-7-104-46-30.24-76.39-19.32-18.94-29.22-40.16-71.1-47.92-37.79-45.81-43.14-114.85-5.28-68.19-1.14-173.45,21.7-179.34-7.06-20.45-20.22-52.5,18.81-92s66.79-76.57,86-54.09-20.79,51.91,2.77,273.47S996.15,1496.45,974.93,1537.24Zm-406.85.75c-21.05-40.88,23.59-31.24,48-252.7s-15.48-251,3.83-273.46,46.92,14.83,85.8,54.42,25.6,71.6,18.46,92c22.81,6,26.54,111.25,21,179.42-5.62,69,27.7,67-43.58,114.69-10,21.18,1.16-36.23-29.38,40C656.63,1531.37,581.43,1563.92,568.08,1538Z"/> <path class="cls-6" d="M1257.41,1779.94c-14.25,14.4-29.13,26.7-43.45,35.15,6-17.13,17-33.29,43.45-35.15Zm-209.23,140.22c-1.24-5.08-5.51-6.92-9.79-7a10.38,10.38,0,0,0-7.17,3.18,88,88,0,0,0,17,3.79Zm274.23-526.52a202.73,202.73,0,0,1-19.42,9.85c5.82,29.23,31.91,36,52.11,40.78,23.06,5.42,38.44,8.18,38.06,39-.09,7.7,5,10.33,10.15,10.4a8.71,8.71,0,0,0,2.76-.44c.51-14.89-.22-30.12,1.85-39.71-2.14-5.23-4.53-9.74-6.51-13.84-15.26-13-33.25-13.26-46-18.55-21.76-5.12-32.1-7.81-33-27.51Zm-10-14.13h-.22c-7.25-.09-10,4.42-10.37,9.23l.84-.89a86.78,86.78,0,0,1,9.75-8.33Zm13.88,302c-5.07-4.24-7.41-10.65-7.27-21.86.09-7.71-5-10.34-10.15-10.4-7.71-.1-10.34,5-10.41,10.15-.26,21,7.6,33.32,18.43,41.14,3.55-6.5,6.71-12.87,9.4-19ZM859.79,1974.07c-.69-1.38-1.35-2.71-2-4-11-9.4-23.4-13.47-34.27-16a78.2,78.2,0,0,0,36.25,20ZM1345,883.68c-9.38-4.13-13.66-10.53-13.47-25.59.09-7.7-5-10.33-10.15-10.4-7.71-.09-10.34,5-10.41,10.15-.32,26.64,12.47,39.41,27.79,46.58.46-5.22,2.38-11.91,6.24-20.74ZM1082,611c-8,5.78-15.46,10.14-6.84-3.86-5.28-4.25-7.71-10.69-7.57-22.12.09-7.71-5-10.34-10.15-10.41s-10.34,5-10.41,10.16c-.5,41.1,30.23,49.19,53.29,54.62s38.45,8.18,38.07,39c-.1,7.71,5,10.34,10.15,10.4,7.71.1,10.34-5,10.4-10.15a73.94,73.94,0,0,0-5-28c-.78.36-1.41.63-1.9.82-9.32,3.61-32.42,10.91-3.63-13-.61-1.25-1.21-2.44-1.77-3.61a115.44,115.44,0,0,0-46-18.56c-7.55-1.77-13.73-3.26-18.61-5.26Zm196.39,97.4c-40.27,0-48.28,30.41-53.66,53.29-5.42,23.06-8.18,38.45-39,38.07-7.71-.1-10.34,5-10.41,10.15-.09,7.71,5,10.34,10.15,10.4,20.56.26,33.5-7.29,43.84-12.31,10.4-10.15,15.8-30.64,18.49-40.89,5.39-20.49,8.09-30.73,31.21-30.45,7.52.1,10.21-4.76,10.4-9.76-4.13-4.49-7.34-8.84-9-13.18q-1.08-2.79-2-5.32Zm49.81,419.66c-1.74-.36-1.92-1.68,0-3.9-.39-6.84-5.24-9.21-10.12-9.27-7.71-.1-10.34,5-10.41,10.15-.5,41.1,30.23,49.19,53.3,54.62s38.44,8.18,38.06,39a13.47,13.47,0,0,0,.39,3.57,53.21,53.21,0,0,0,20.15-3c0-.1,0-.21,0-.32.26-20.55-7.29-33.49-12.3-43.83-12.69-13-30.65-15.8-46-18.56-22.11-5.2-32.43-7.89-33-28.47ZM1205.93,530.51a53.57,53.57,0,0,1-16.91,2c-7.71-.09-10.34,5-10.4,10.15s5,10.34,10.15,10.41a73.63,73.63,0,0,0,24.83-3.87,141.71,141.71,0,0,0-6.58-16.43C1206.66,532,1206.29,531.27,1205.93,530.51ZM814.3,1418.12c-18.42-4.59-26.67-8.88-26.41-29.66.09-7.71-5-10.34-10.15-10.4a16.09,16.09,0,0,0-1.88.08q-.45,19.72-.93,40c10.49,16,29.89,20.95,45.69,24.67,23.06,5.42,38.45,8.18,38.07,39-.1,7.71,5,10.34,10.15,10.4s8-2.19,9.4-5.23c-.47-1-.89-2-1.28-2.93-30.24-76.39-19.32-18.94-29.22-40.16-15.76-10.62-26.38-18.78-33.44-25.8Zm-45.1-36.35a11.4,11.4,0,0,0-1.87,6.44,63.89,63.89,0,0,0,1.81,16.6q0-11.49.06-23Zm217.22,131.14c-.33,5.19-2,10.5-5.5,17.15-4.25,8.17-14.65,10.49-27.39,8.59-4.18,8.59-6.52,18-8.5,26.48-5.42,23.06-8.18,38.45-39,38.07-7.7-.1-10.33,5-10.4,10.15-.09,7.71,5,10.34,10.15,10.4,20.56.25,33.5-7.3,43.84-12.31,10.4-10.15,15.79-30.64,18.49-40.88,5.42-23.06,8.12-33.31,31.24-33,7.71.09,10.34-5,10.41-10.15,5.26-10.22-2.38-15.45-10.09-15.55a67,67,0,0,0-13.23,1.07ZM784.15,1654.6c-2.31,13.08-3.92,28.53-4.91,42,10.81,9.33,25.56,13.05,38.06,16,12.7,3,23.08,5.17,29.77,11.68a102.83,102.83,0,0,0,7.59-11.42c1.75-3.1,3.48-6.1,5.18-9-12.3-12-28.32-14.25-42.25-14.42-23.07-5.43-33.31-8.12-33-31.24a13.46,13.46,0,0,0-.41-3.64Zm68.3,77.74c2,4.81,3,11,2.91,19.27-.09,7.71,5,10.34,10.16,10.41,7.7.09,10.33-5,10.4-10.15.21-17.39-5.16-29.33-9.85-38.86-4.34,6.21-9,12.8-13.62,19.33ZM586.9,1455.93c2.48-7.25,5.09-15.5,7.78-25-13.59-10.11-27.26-14.35-41-14.52-23.06-5.42-33.3-8.12-33-31.24.1-7.71-5-10.34-10.15-10.4-7.71-.1-10.34,5-10.4,10.15-.51,41.1,30.23,49.19,53.29,54.61,15.37,3.62,27.32,6,33.48,16.4ZM783.49,841.09q.1,20.5.08,42.91c10.83,13.77,28.84,18.36,43.67,21.85,23.06,5.42,38.44,8.18,38.06,39-.09,7.71,5,10.34,10.15,10.41,7.71.09,10.34-5,10.41-10.16.25-20.55-7.3-33.49-12.31-43.83-12.69-13-30.61-18.37-46-18.56-23.06-5.42-33.31-8.12-33-31.24.1-7.71-5-10.34-10.15-10.4-.29,0-.58,0-.86,0Zm-.18,0c-6.91.36-9.3,5.23-9.36,10.13-.16,12.72,2.68,22.29,7.35,29.59.67-14.05,1.33-27.32,2-39.72Zm147.84,222.51c-.81,6.41-1.62,13.57-2.33,21.59,11.57-2.44,20.13-7.21,27.39-10.74,10.41-10.15,15.8-30.64,18.49-40.88,5.43-23.06,8.12-33.31,31.25-33,7.71.09,10.34-5,10.4-10.15S1014,975,1006.26,974.86c-41.1-.5-49.19,30.23-54.62,53.29-4,17.22-6.61,30.16-20.49,35.46ZM781.3,1108.29q-.34,21.14-.74,43.26c8.18,10.18,20.33,15.27,32.11,18.64,3.27-10.74,7.4-18,12.52-20.09l-1-.17c-23.06-5.42-33.31-8.12-33-31.24.09-7.59-4.85-10.26-9.91-10.4Zm-8.06,2.83a10.79,10.79,0,0,0-2.59,7.31,63,63,0,0,0,2,17.26q.29-12.36.6-24.57Zm-89.87-81.72c5.84,6,12,12.64,18.5,19.46,2.59-7,4.39-13.88,5.63-18.57,5.42-23.06,8.12-33.31,31.24-33,7.71.1,10.34-5,10.41-10.14s-2.38-15.45-10.09-15.55c-41.11-.5-49.2,30.23-54.62,53.29-.37,1.55-.72,3.06-1.07,4.54Zm256,292.48q1.78,12.94,3.65,24.61c3.63-1.65,6.9-3.35,9.94-4.82,10.41-10.15,15.8-30.64,18.49-40.89,5.43-23.06,8.12-33.3,31.25-33,7.7.1,10.34-5,10.4-10.15s-2.38-15.45-10.09-15.54c-41.11-.51-49.19,30.23-54.62,53.29-2.54,10.8-4.49,19.92-9,26.52ZM712.05,1780.25c-26.52,7-33,31.93-37.55,51.37-5.42,23.06-8.18,38.44-39,38.06-7.71-.1-10.34,5-10.41,10.15-.09,7.71,5,10.34,10.15,10.41,20.56.25,33.5-7.3,43.84-12.31,10.4-10.15,15.8-30.64,18.49-40.89,5.43-23.06,8.12-33.31,31.24-33a14.86,14.86,0,0,0,2.17-.12c-.59-1.33-1.23-2.67-1.89-4-4.92-7.21-8-8.3-17-19.62ZM253.48,1381.66c-2.77-.06-8.22-2.18-17.71-7.62a10.61,10.61,0,0,0-2.85,7.58c-.5,41.11,30.23,49.2,53.29,54.62s38.45,8.19,38.07,39c-.1,7.7,5,10.34,10.15,10.4,7.71.1,10.34-5,10.4-10.15.25-20.55-7.3-33.49-12.31-43.84-15.25-13-33.18-18.39-46-18.55-23.06-5.42-33.31-8.12-33-31.24v-.22ZM520.27,1943a31,31,0,0,0,4.25,7.15c11.08,13.79,37.79,14.65,61.83,16.48-13-9.22-26.12-13.12-39.26-13.28-12.7-3-21.51-5.14-26.82-10.35ZM194.5,1501.93c-10.11,3.85-19.66,6.35-27.9,6.91,7-4.29,16.07-6.91,27.9-6.91Zm-27.27,45.67c4.18-13.91,9.73-20.19,27.92-20,7.71.09,10.34-5,10.4-10.15,1.73-6.57.27-11.06-3-13.47l-2.24,1c-18.08,7.58-40,15.3-33,42.64ZM379,1865.75c7.16,2.68,16,8.61,25.13,5.31,21.44-7.73,22-27.41,21.35-36.15-1.28-17.51,15-56.84,36.51-38.83-1.81,1.06-6.3,2.88-10.89,5.5a48.33,48.33,0,0,1,10.49-.85c7.71.09,10.34-5,10.4-10.15,2.73-12.82-4.95-15.48-10.08-15.55-41.11-.5-49.2,30.23-54.62,53.3-4.72,20-7.42,34.28-28.29,37.42ZM862.27,379.19c3.27,3.69,5.5,8.66,6.51,15.64,5.19.06,12.05-.21,20.51-.29-1.9-14.42-7.61-24.48-11.67-32.84-.3-.31-.61-.62-.94-.93-2.93,3.37-6,7.17-9.29,11.44q-3,3.92-5.12,7Zm7.11,24.15c0,.64,0,1.28,0,1.94-.1,7.71,5,10.34,10.15,10.4,7.08.09,9.87-4.21,10.33-8.89a156.37,156.37,0,0,1-20.48-3.45ZM826,611.18c-6.83,5.37-8.61,13.41-7.3,22.64,3.18.8,6.33,1.51,9.34,2.22,23.06,5.42,38.45,8.18,38.07,39-.1,7.7,5,10.33,10.14,10.4,7.71.09,10.35-5,10.41-10.15.25-20.56-7.3-33.5-12.31-43.84-10.15-10.4-30.64-15.79-40.89-18.49-2.65-.63-5.14-1.21-7.46-1.8ZM566.06,364c20.52,4.86,33.9,9.19,33.54,38-.09,7.71,5,10.34,10.15,10.4s10.34-5,10.41-10.15c.25-20.55-7.3-33.49-12.31-43.83a37.89,37.89,0,0,0-6.43-5.19c-9.55,2.74-22.31,6.58-35.36,10.81ZM178.33,965.59c-3.44,13-6.17,26.67-6.4,40.46,4.13-12.53,10-18.21,27.3-18,7.7.1,10.34-5,10.4-10.15,5.26-10.21-2.38-15.45-10.09-15.54a59.31,59.31,0,0,0-21.21,3.23ZM510.48,593.41c5.16,9,5.27,11.66,3,11.16,8.37,20,29.42,24.12,44.73,28.15,23.06,5.42,38.44,8.18,38.06,39-.09,7.71,5,10.34,10.15,10.41s10.34-5,10.4-10.15c.26-20.56-7.29-33.5-12.3-43.84-10.15-10.4-30.64-15.8-40.89-18.49-23.06-5.42-33.31-8.12-33-31.24.09-7.71-5-10.35-10.15-10.41-7.71-.09-10.34,5-10.41,10.15a71.58,71.58,0,0,0,.42,15.25Zm-68.56-94.63c-5.3-7.65-11.74-13.85-19.06-15.84-.59,2.3-1.13,4.57-1.64,6.76-5.43,23.06-8.19,38.44-39,38.06a12,12,0,0,0-5.38,1.06A79.47,79.47,0,0,0,373,540.89c2.26,2.21,7.08,2.27,9,2.29,20.56.25,33.5-7.3,43.84-12.31,7.92-7.73,12.94-21.46,16.07-32.09Zm13.81-36.6c4.21-3.65,10.28-5.33,19.85-5.22,7.71.1,10.34-5,10.41-10.15.09-7.71-5-10.34-10.15-10.4-.83,0-1.63,0-2.43,0-2,2.74-4,5.25-5.87,7.45-5,5.73-9.12,11.63-11.81,18.31ZM309.63,634.47c12.31,4.63,19.71,12.48,19.45,34-.1,7.71,5,10.34,10.15,10.4,7.7.1,10.34-5,10.4-10.15.25-20.55-7.3-33.49-12.31-43.83-6.29-6.45-16.55-11-25.88-14.12-1.87,4.34-2.69,11.25-2,21.53,0,.75.1,1.49.16,2.2ZM160.92,1243.91c-6.78,17-7.73,37.67-.14,60.45,1.68-5.16,2.94-10,3.88-13.52,5.42-23,8.12-33.3,31.24-33,7.71.1,10.34-5,10.41-10.15s-2.38-15.44-10.09-15.54c-16.35-.2-27.48,4.54-35.3,11.78Zm923.93,443.72c-23.06-5.42-33.3-8.12-33-31.24.1-7.71-5-10.34-10.15-10.41s-10.34,5-10.4,10.15c-.51,41.11,30.23,49.2,53.29,54.62s38.44,8.19,38.06,39c-.09,7.7,5,10.34,10.15,10.4,7.71.1,10.34-5,10.41-10.15.25-20.55-7.3-33.49-12.31-43.84C1113.05,1693.12,1097.67,1690.36,1084.85,1687.63Zm-91,88.82c-41.11-.51-49.2,30.23-54.62,53.29s-8.18,38.44-39,38.06c-7.71-.09-10.34,5-10.41,10.15s5,10.34,10.15,10.4c20.56.26,33.5-7.29,43.84-12.3,10.4-10.15,15.8-30.64,18.49-40.89,5.43-23.06,8.12-33.31,31.24-33,7.71.09,10.34-5,10.41-10.15C1006.57,1784.31,999,1776.51,993.82,1776.45Zm273.07-263.89c-41.11-.5-49.2,30.24-54.62,53.3s-8.19,38.44-39,38.06c-7.71-.1-10.34,5-10.4,10.15-.1,7.71,5,10.34,10.15,10.4,20.55.26,33.49-7.29,43.84-12.3,10.4-10.15,15.79-30.65,18.49-40.89,5.42-23.06,8.12-33.31,31.24-33,7.71.09,10.34-5,10.4-10.15C1277.07,1520.4,1272,1512.63,1266.89,1512.56Zm-257.3-807.47c-41.11-.51-49.2,30.23-54.62,53.29s-8.19,38.44-39,38.06c-7.71-.09-10.34,5-10.4,10.15-.1,7.71,5,10.35,10.15,10.41,20.55.25,33.5-7.3,43.83-12.31,10.41-10.15,15.8-30.64,18.5-40.89,5.42-23.06,8.12-33.3,31.24-33,7.71.1,10.34-5,10.4-10.15C1022.31,715.52,1017.29,705.18,1009.59,705.09Zm87.71,181c-23.07-5.43-33.31-8.12-33-31.25.09-7.7-5-10.34-10.16-10.4s-10.34,5-10.4,10.15c-.51,41.11,30.23,49.2,53.29,54.62s38.45,8.18,38.07,39c-.1,7.71,5,10.35,10.15,10.41,7.7.09,10.34-5,10.4-10.15.25-20.56-7.3-33.5-12.31-43.84C1128.06,891.57,1112.71,886.24,1097.3,886.05ZM1276,978.19c-41.11-.51-49.2,30.23-54.62,53.29s-8.18,38.44-39,38.06c-7.7-.09-10.34,5-10.4,10.15s5,10.34,10.15,10.41c20.56.25,33.5-7.3,43.84-12.31,10.4-10.15,15.79-30.65,18.49-40.89,5.42-23.06,8.12-33.31,31.24-33,7.71.09,10.34-5,10.41-10.15S1283.74,978.28,1276,978.19ZM557,1146.64c-23.06-5.43-33.31-8.12-33-31.25.1-7.7-5-10.34-10.15-10.4-7.7-.09-10.34,5-10.4,10.15-.51,41.11,30.23,49.2,53.29,54.62s38.44,8.18,38.07,39c-.1,7.7,5,10.33,10.15,10.4s10.34-5,10.4-10.15c.25-20.56-7.3-33.5-12.31-43.84C587.79,1152.16,572.41,1149.4,557,1146.64Zm-88.47,88.85c-41.11-.51-49.19,30.23-54.62,53.29s-8.18,38.44-39,38.06c-7.71-.09-10.34,5-10.4,10.15-.1,7.71,5,10.34,10.15,10.41,20.55.25,33.49-7.3,43.83-12.31,10.41-10.15,15.8-30.64,18.49-40.89,5.43-23.06,8.12-33.31,31.25-33,7.7.09,10.34-5,10.4-10.15S473.7,1235.55,468.56,1235.49Zm804.19,9.9c-41.11-.51-49.2,30.23-54.62,53.29s-8.19,38.45-39,38.07c-7.7-.1-10.34,5-10.4,10.15-.1,7.7,5,10.34,10.15,10.4,20.56.25,33.5-7.3,43.84-12.31,10.4-10.15,15.79-30.64,18.49-40.89,5.42-23,8.12-33.3,31.24-33,7.71.1,10.34-5,10.4-10.15S1280.45,1245.49,1272.75,1245.39ZM732.44,1508.55c-41.1-.5-49.19,30.23-54.62,53.29s-8.18,38.45-39,38.07c-7.71-.1-10.34,5-10.4,10.15-.1,7.7,5,10.34,10.15,10.4,20.55.25,33.49-7.3,43.83-12.31,10.41-10.15,15.8-30.64,18.49-40.88,5.43-23.06,8.12-33.31,31.25-33,7.7.1,10.34-5,10.4-10.15C745.23,1513.85,740.15,1508.65,732.44,1508.55ZM1094,1153.25c-23.06-5.42-33.3-8.12-33-31.24.1-7.71-5-10.34-10.15-10.41s-10.34,5-10.4,10.16c-.51,41.1,30.23,49.19,53.29,54.62s38.45,8.18,38.06,39c-.09,7.71,5,10.34,10.15,10.4,7.71.1,10.35-5,10.41-10.15.25-20.55-7.3-33.49-12.31-43.83C1124.77,1158.77,1109.39,1156,1094,1153.25ZM1090.68,1423c-23.06-5.43-33.3-8.12-33-31.25.1-7.7-5-10.34-10.15-10.4s-10.34,5-10.4,10.15c-.51,41.11,30.23,49.2,53.29,54.62s38.44,8.18,38.06,39c-.09,7.71,5,10.34,10.15,10.41,7.71.09,10.34-5,10.41-10.15.25-20.56-7.3-33.5-12.31-43.84C1121.45,1428.55,1106.1,1423.22,1090.68,1423Zm-540.3,263.16c-23.06-5.43-33.31-8.12-33-31.25.09-7.7-5-10.34-10.15-10.4-7.71-.1-10.34,5-10.41,10.15-.5,41.11,30.23,49.19,53.29,54.62s38.45,8.18,38.07,39c-.1,7.71,5,10.34,10.15,10.41s10.34-5,10.4-10.15c.26-20.56-7.29-33.5-12.31-43.84C581.18,1689.14,565.8,1686.38,550.38,1686.19Zm-85.14-180.93c-41.11-.5-49.2,30.23-54.62,53.29s-8.18,38.44-39,38.06c-7.71-.09-10.34,5-10.41,10.16-.09,7.7,5,10.33,10.15,10.4,20.56.25,33.5-7.3,43.84-12.31,10.4-10.15,15.79-30.64,18.49-40.88,5.42-23.07,8.12-33.31,31.24-33,7.71.1,10.34-5,10.41-10.15C478,1510.56,470.38,1505.32,465.24,1505.26ZM283.17,1682.9c-23.06-5.43-33.3-8.12-33-31.25.1-7.71-5-10.34-10.15-10.4-7.7-.1-10.34,5-10.4,10.15-.51,41.11,30.23,49.19,53.29,54.62s38.44,8.18,38.06,39c-.09,7.71,5,10.34,10.15,10.4,7.71.1,10.35-5,10.41-10.14.25-20.56-7.3-33.5-12.31-43.84C314,1685.84,296,1683.05,283.17,1682.9ZM919,549.79c20.55.26,33.5-7.29,43.84-12.31,10.4-10.15,15.79-30.64,18.49-40.88,5.42-23.06,8.12-33.31,31.24-33,7.71.09,10.34-5,10.4-10.15.1-7.71-5-10.34-10.15-10.41-41.1-.5-49.19,30.23-54.62,53.29s-8.18,38.45-39,38.07c-7.71-.1-10.34,5-10.4,10.15S913.85,549.73,919,549.79Zm-267.2-3.29c20.55.26,33.49-7.29,43.83-12.31,10.41-10.15,15.8-30.64,18.49-40.88,5.43-23.06,8.12-33.31,31.25-33,7.7.09,10.34-5,10.4-10.15.1-7.71-5-10.35-10.15-10.41C704.5,439.23,696.41,470,691,493s-8.18,38.45-39,38.07c-7.71-.1-10.34,5-10.41,10.15S646.65,546.44,651.79,546.5ZM287.72,896.63c23.06,5.43,38.44,8.19,38.06,39-.09,7.7,5,10.34,10.15,10.4,7.71.09,10.35-5,10.41-10.15.25-20.56-7.3-33.5-12.31-43.84-10.15-10.4-30.64-15.79-40.89-18.49-23.06-5.42-33.3-8.12-33-31.24.1-7.71-5-10.34-10.15-10.41-7.71-.09-10.34,5-10.4,10.16C233.89,885.69,264.63,893.78,287.72,896.63Zm87.68,183.53c20.55.25,33.49-7.3,43.83-12.31,10.41-10.15,15.8-30.64,18.5-40.89,5.42-23.06,8.11-33.3,31.24-33,7.71.1,10.34-5,10.4-10.15.1-7.71-5-10.34-10.15-10.4-41.11-.51-49.2,30.23-54.62,53.29s-8.18,38.44-39,38.06c-7.71-.09-10.34,5-10.41,10.15S372.83,1080.13,375.4,1080.16ZM648.49,813.71c20.56.25,33.5-7.3,43.84-12.31,10.4-10.15,15.8-30.64,18.49-40.89,5.43-23.06,8.12-33.3,31.24-33,7.71.1,10.35-5,10.41-10.15.09-7.71-5-10.34-10.15-10.4-41.11-.51-49.2,30.23-54.62,53.29s-8.18,38.44-39,38.06c-7.7-.09-10.34,5-10.4,10.15S643.36,813.64,648.49,813.71ZM284.4,1166.41c23.06,5.42,38.44,8.18,38.06,39-.09,7.71,5,10.34,10.15,10.4,7.71.1,10.34-5,10.41-10.15.25-20.55-7.3-33.49-12.31-43.83-10.15-10.41-30.64-15.8-40.89-18.49-23.06-5.43-33.31-8.12-33-31.25.09-7.71-5-10.34-10.15-10.4-7.71-.1-10.34,5-10.4,10.15C230.57,1155.46,261.34,1161,284.4,1166.41ZM554.92,899.92c23.07,5.43,38.45,8.19,38.07,39-.1,7.7,5,10.34,10.15,10.4s10.34-5,10.4-10.15c.26-20.55-7.29-33.5-12.3-43.84-10.16-10.4-30.65-15.79-40.89-18.49-23.06-5.42-33.31-8.12-33-31.24.09-7.71-5-10.34-10.15-10.4-7.71-.1-10.34,5-10.41,10.15C503.67,889,534.4,897.1,554.92,899.92Zm-176.2-89.53c20.55.25,33.5-7.3,43.84-12.31,10.4-10.16,15.79-30.65,18.49-40.89,5.42-23.06,8.12-33.31,31.24-33,7.71.09,10.34-5,10.4-10.15.1-7.71-5-10.34-10.15-10.41-41.1-.5-49.19,30.23-54.62,53.29s-8.18,38.45-39,38.07c-7.71-.1-10.34,5-10.4,10.15S376.15,810.35,378.72,810.39Z"/> </g> </g> </g> </g> </g> </svg>